<svg width="10" height="17" viewBox="0 0 10 17" fill="none" xmlns="http://www.w3.org/2000/svg">
<path d="M3.07969 9.04148C3.01969 9.04148 1.69969 9.04148 1.09969 9.04148C0.779688 9.04148 0.679688 8.92148 0.679688 8.62148C0.679688 7.82148 0.679688 7.00148 0.679688 6.20148C0.679688 5.88148 0.799688 5.78148 1.09969 5.78148H3.07969C3.07969 5.72148 3.07969 4.56148 3.07969 4.02148C3.07969 3.22148 3.21969 2.46148 3.61969 1.76148C4.03969 1.04148 4.63969 0.561484 5.39969 0.281484C5.89969 0.101484 6.39969 0.0214844 6.93968 0.0214844H8.89968C9.17968 0.0214844 9.29968 0.141484 9.29968 0.421484V2.70148C9.29968 2.98148 9.17968 3.10148 8.89968 3.10148C8.35968 3.10148 7.81968 3.10148 7.27968 3.12148C6.73969 3.12148 6.45968 3.38148 6.45968 3.94148C6.43968 4.54148 6.45968 5.12148 6.45968 5.74148H8.77968C9.09968 5.74148 9.21968 5.86148 9.21968 6.18148V8.60148C9.21968 8.92148 9.11968 9.02148 8.77968 9.02148C8.05968 9.02148 6.51968 9.02148 6.45968 9.02148V15.5415C6.45968 15.8815 6.35968 16.0015 5.99969 16.0015C5.15969 16.0015 4.33969 16.0015 3.49969 16.0015C3.19969 16.0015 3.07969 15.8815 3.07969 15.5815C3.07969 13.4815 3.07969 9.10148 3.07969 9.04148Z" fill="#1F6BFF"/>
</svg>
